# xmcd
#
# Track frame offsets:
#	150
#	12753
#	24063
#	32834
#	44006
#	63023
#	77434
#	86119
#	102043
#	113324
#	125971
#	138585
#	152334
#	162434
#
# Disc length: 2354 seconds
#
# Revision: 0
# Processed by: cddbd v1.5.2PL0 Copyright (c) Steve Scherf et al.
# Submitted via: EZCDAudioConverter 1.0.8.1
#
DISCID=a009300e
DTITLE=Klipwerf Boere Orkes - Hantam Opskop
DYEAR=1900
DGENRE=
TTITLE0=01 Janneman Se Vastrap
TTITLE1=02 Suilerbos Setees
TTITLE2=03 Antjie
TTITLE3=04 Jakaranda Meisie
TTITLE4=05 California Blue
TTITLE5=06 Hantam Verlange
TTITLE6=07 Hantam Opskop
TTITLE7=08 Aandblom Tango
TTITLE8=09 Sontjie Sak Weg - Blouberge
TTITLE9=10 Rondomtalie Wals
TTITLE10=11 Suikerbossie
TTITLE11=12 Blue Eyes Crying In The Rain
TTITLE12=13 Ranger's Waltz
TTITLE13=14 Sonop
EXTD=
EXTT0=
EXTT1=
EXTT2=
EXTT3=
EXTT4=
EXTT5=
EXTT6=
EXTT7=
EXTT8=
EXTT9=
EXTT10=
EXTT11=
EXTT12=
EXTT13=
PLAYORDER=
